<svg width="1280" height="1105" viewBox="0 0 1280 1105" fill="none" xmlns="http://www.w3.org/2000/svg">
<g filter="url(#filter0_ii_310_3234)">
<path d="M635.409 438.508C587.413 438.508 548.185 472.634 548.185 514.388V771.068C548.185 782.802 526.267 782.802 526.267 771.068V599.655C526.267 511.063 442.977 438.508 341.029 438.508C239.08 438.508 155.791 511.063 155.791 599.655V855.553C155.791 856.238 155.791 856.922 155.903 857.607V944.145C155.903 955.879 133.985 955.879 133.985 944.145V772.731C133.985 684.139 50.695 611.584 -51.2533 611.584C-153.202 611.584 -236.267 684.139 -236.267 772.731V1028.63C-236.267 1070.38 -197.038 1104.51 -149.043 1104.51C-101.047 1104.51 -61.8191 1070.38 -61.8191 1028.63V772.046C-61.8191 760.312 -40.1255 760.312 -40.1255 772.046V943.265C-40.1255 1031.86 43.2765 1104.41 145.113 1104.41C246.948 1104.41 330.351 1031.86 330.351 943.265C330.351 854.673 330.351 772.633 330.463 687.366C330.463 686.584 330.463 685.899 330.351 685.117V598.872C330.351 587.138 352.044 587.138 352.044 598.872V770.091C352.044 858.682 435.446 931.237 537.282 931.237C639.118 931.237 722.52 858.682 722.52 770.091C722.52 681.499 722.52 599.459 722.633 514.192C722.633 472.439 683.404 438.312 635.409 438.312V438.508Z" fill="white"/>
<path d="M635.581 666.001C683.577 666.001 722.805 631.874 722.805 590.121V333.44C722.805 321.706 744.723 321.706 744.723 333.44V504.854C744.723 593.446 828.013 666.001 929.961 666.001C1031.91 666.001 1115.2 593.446 1115.2 504.854V248.956C1115.2 248.271 1115.2 247.587 1115.09 246.902V160.364C1115.09 148.63 1137.01 148.63 1137.01 160.364V331.778C1137.01 420.37 1220.3 492.925 1322.24 492.925C1424.19 492.925 1507.26 420.37 1507.26 331.778V75.8795C1507.26 34.1261 1468.03 -0.000200066 1420.03 -0.000200066C1372.04 -0.000200066 1332.81 34.1261 1332.81 75.8795V332.462C1332.81 344.196 1311.12 344.196 1311.12 332.462V161.244C1311.12 72.6526 1227.71 0.097578 1125.88 0.097578C1024.04 0.097578 940.64 72.6526 940.64 161.244C940.64 249.836 940.64 331.876 940.527 417.143C940.527 417.925 940.527 418.609 940.64 419.392V505.636C940.64 517.37 918.946 517.37 918.946 505.636V334.418C918.946 245.827 835.544 173.272 733.708 173.272C631.872 173.272 548.47 245.827 548.47 334.418C548.47 423.01 548.47 505.05 548.358 590.317C548.358 632.07 587.586 666.196 635.581 666.196V666.001Z" fill="white"/>
</g>
<defs>
<filter id="filter0_ii_310_3234" x="-242.267" y="-14" width="1763.52" height="1126.51" filterUnits="userSpaceOnUse" color-interpolation-filters="sRGB">
<feFlood flood-opacity="0" result="BackgroundImageFix"/>
<feBlend mode="normal" in="SourceGraphic" in2="BackgroundImageFix" result="shape"/>
<feColorMatrix in="SourceAlpha" type="matrix" values="0 0 0 0 0 0 0 0 0 0 0 0 0 0 0 0 0 0 127 0" result="hardAlpha"/>
<feOffset dx="16" dy="-16"/>
<feGaussianBlur stdDeviation="7"/>
<feComposite in2="hardAlpha" operator="arithmetic" k2="-1" k3="1"/>
<feColorMatrix type="matrix" values="0 0 0 0 0 0 0 0 0 0 0 0 0 0 0 0 0 0 0.25 0"/>
<feBlend mode="normal" in2="shape" result="effect1_innerShadow_310_3234"/>
<feColorMatrix in="SourceAlpha" type="matrix" values="0 0 0 0 0 0 0 0 0 0 0 0 0 0 0 0 0 0 127 0" result="hardAlpha"/>
<feOffset dx="-6" dy="8"/>
<feGaussianBlur stdDeviation="7"/>
<feComposite in2="hardAlpha" operator="arithmetic" k2="-1" k3="1"/>
<feColorMatrix type="matrix" values="0 0 0 0 1 0 0 0 0 1 0 0 0 0 1 0 0 0 0.5 0"/>
<feBlend mode="normal" in2="effect1_innerShadow_310_3234" result="effect2_innerShadow_310_3234"/>
</filter>
</defs>
</svg>
