<svg width="1744" height="966" viewBox="0 0 1744 966" fill="none" xmlns="http://www.w3.org/2000/svg">
<g filter="url(#filter0_ii_352_3032)">
<path d="M871.676 299.519C823.68 299.519 784.452 333.645 784.452 375.399V632.079C784.452 643.813 762.533 643.813 762.533 632.079V460.665C762.533 372.074 679.244 299.519 577.295 299.519C475.347 299.519 392.057 372.074 392.057 460.665V716.564C392.057 717.248 392.057 717.933 392.17 718.617V805.155C392.17 816.889 370.251 816.889 370.251 805.155V633.742C370.251 545.15 286.962 472.595 185.013 472.595C83.0649 472.595 0 545.15 0 633.742V889.64C0 931.393 39.2282 965.52 87.2237 965.52C135.219 965.52 174.447 931.393 174.447 889.64V633.057C174.447 621.323 196.141 621.323 196.141 633.057V804.275C196.141 892.867 279.543 965.422 381.379 965.422C483.215 965.422 566.617 892.867 566.617 804.275C566.617 715.684 566.617 633.644 566.73 548.377C566.73 547.595 566.73 546.91 566.617 546.128V459.883C566.617 448.149 588.311 448.149 588.311 459.883V631.101C588.311 719.693 671.713 792.248 773.549 792.248C875.385 792.248 958.787 719.693 958.787 631.101C958.787 542.51 958.787 460.47 958.899 375.203C958.899 333.45 919.671 299.323 871.676 299.323V299.519Z" fill="white"/>
<path d="M871.848 666.001C919.843 666.001 959.072 631.875 959.072 590.121V333.441C959.072 321.707 980.99 321.707 980.99 333.441V504.855C980.99 593.446 1064.28 666.001 1166.23 666.001C1268.18 666.001 1351.47 593.446 1351.47 504.855V248.956C1351.47 248.272 1351.47 247.587 1351.35 246.903V160.365C1351.35 148.631 1373.27 148.631 1373.27 160.365V331.778C1373.27 420.37 1456.56 492.925 1558.51 492.925C1660.46 492.925 1743.52 420.37 1743.52 331.778V75.88C1743.52 34.1266 1704.3 0.000305176 1656.3 0.000305176C1608.3 0.000305176 1569.08 34.1266 1569.08 75.88V332.463C1569.08 344.197 1547.38 344.197 1547.38 332.463V161.245C1547.38 72.6531 1463.98 0.0980835 1362.14 0.0980835C1260.31 0.0980835 1176.91 72.6531 1176.91 161.245C1176.91 249.836 1176.91 331.876 1176.79 417.143C1176.79 417.925 1176.79 418.61 1176.91 419.392V505.637C1176.91 517.371 1155.21 517.371 1155.21 505.637V334.419C1155.21 245.827 1071.81 173.272 969.975 173.272C868.139 173.272 784.736 245.827 784.736 334.419C784.736 423.01 784.737 505.05 784.624 590.317C784.624 632.07 823.852 666.197 871.848 666.197V666.001Z" fill="white"/>
</g>
<defs>
<filter id="filter0_ii_352_3032" x="-6" y="-13.9995" width="1763.52" height="987.519" filterUnits="userSpaceOnUse" color-interpolation-filters="sRGB">
<feFlood flood-opacity="0" result="BackgroundImageFix"/>
<feBlend mode="normal" in="SourceGraphic" in2="BackgroundImageFix" result="shape"/>
<feColorMatrix in="SourceAlpha" type="matrix" values="0 0 0 0 0 0 0 0 0 0 0 0 0 0 0 0 0 0 127 0" result="hardAlpha"/>
<feOffset dx="16" dy="-16"/>
<feGaussianBlur stdDeviation="7"/>
<feComposite in2="hardAlpha" operator="arithmetic" k2="-1" k3="1"/>
<feColorMatrix type="matrix" values="0 0 0 0 0 0 0 0 0 0 0 0 0 0 0 0 0 0 0.25 0"/>
<feBlend mode="normal" in2="shape" result="effect1_innerShadow_352_3032"/>
<feColorMatrix in="SourceAlpha" type="matrix" values="0 0 0 0 0 0 0 0 0 0 0 0 0 0 0 0 0 0 127 0" result="hardAlpha"/>
<feOffset dx="-6" dy="8"/>
<feGaussianBlur stdDeviation="7"/>
<feComposite in2="hardAlpha" operator="arithmetic" k2="-1" k3="1"/>
<feColorMatrix type="matrix" values="0 0 0 0 1 0 0 0 0 1 0 0 0 0 1 0 0 0 0.5 0"/>
<feBlend mode="normal" in2="effect1_innerShadow_352_3032" result="effect2_innerShadow_352_3032"/>
</filter>
</defs>
</svg>
