<svg width="1744" height="1105" viewBox="0 0 1744 1105" fill="none" xmlns="http://www.w3.org/2000/svg">
<g filter="url(#filter0_ii_352_3032)">
<path d="M871.676 438.508C823.68 438.508 784.452 472.634 784.452 514.388V771.068C784.452 782.802 762.533 782.802 762.533 771.068V599.655C762.533 511.063 679.244 438.508 577.295 438.508C475.347 438.508 392.057 511.063 392.057 599.655V855.553C392.057 856.238 392.057 856.922 392.17 857.607V944.145C392.17 955.879 370.251 955.879 370.251 944.145V772.731C370.251 684.139 286.962 611.584 185.013 611.584C83.0649 611.584 0 684.139 0 772.731V1028.63C0 1070.38 39.2282 1104.51 87.2237 1104.51C135.219 1104.51 174.447 1070.38 174.447 1028.63V772.046C174.447 760.312 196.141 760.312 196.141 772.046V943.265C196.141 1031.86 279.543 1104.41 381.379 1104.41C483.215 1104.41 566.617 1031.86 566.617 943.265C566.617 854.673 566.617 772.633 566.73 687.366C566.73 686.584 566.73 685.899 566.617 685.117V598.872C566.617 587.138 588.311 587.138 588.311 598.872V770.091C588.311 858.682 671.713 931.237 773.549 931.237C875.385 931.237 958.787 858.682 958.787 770.091C958.787 681.499 958.787 599.459 958.899 514.192C958.899 472.439 919.671 438.312 871.676 438.312V438.508Z" fill="white"/>
<path d="M871.848 666.001C919.843 666.001 959.072 631.874 959.072 590.121V333.44C959.072 321.706 980.99 321.706 980.99 333.44V504.854C980.99 593.446 1064.28 666.001 1166.23 666.001C1268.18 666.001 1351.47 593.446 1351.47 504.854V248.956C1351.47 248.271 1351.47 247.587 1351.35 246.902V160.364C1351.35 148.63 1373.27 148.63 1373.27 160.364V331.778C1373.27 420.37 1456.56 492.925 1558.51 492.925C1660.46 492.925 1743.52 420.37 1743.52 331.778V75.8795C1743.52 34.1261 1704.3 -0.000183105 1656.3 -0.000183105C1608.3 -0.000183105 1569.08 34.1261 1569.08 75.8795V332.462C1569.08 344.196 1547.38 344.196 1547.38 332.462V161.244C1547.38 72.6526 1463.98 0.0975952 1362.14 0.0975952C1260.31 0.0975952 1176.91 72.6526 1176.91 161.244C1176.91 249.836 1176.91 331.876 1176.79 417.143C1176.79 417.925 1176.79 418.609 1176.91 419.392V505.636C1176.91 517.37 1155.21 517.37 1155.21 505.636V334.418C1155.21 245.827 1071.81 173.272 969.975 173.272C868.139 173.272 784.736 245.827 784.736 334.418C784.736 423.01 784.737 505.05 784.624 590.317C784.624 632.07 823.852 666.196 871.848 666.196V666.001Z" fill="white"/>
</g>
<defs>
<filter id="filter0_ii_352_3032" x="-6" y="-14" width="1763.52" height="1126.51" filterUnits="userSpaceOnUse" color-interpolation-filters="sRGB">
<feFlood flood-opacity="0" result="BackgroundImageFix"/>
<feBlend mode="normal" in="SourceGraphic" in2="BackgroundImageFix" result="shape"/>
<feColorMatrix in="SourceAlpha" type="matrix" values="0 0 0 0 0 0 0 0 0 0 0 0 0 0 0 0 0 0 127 0" result="hardAlpha"/>
<feOffset dx="16" dy="-16"/>
<feGaussianBlur stdDeviation="7"/>
<feComposite in2="hardAlpha" operator="arithmetic" k2="-1" k3="1"/>
<feColorMatrix type="matrix" values="0 0 0 0 0 0 0 0 0 0 0 0 0 0 0 0 0 0 0.25 0"/>
<feBlend mode="normal" in2="shape" result="effect1_innerShadow_352_3032"/>
<feColorMatrix in="SourceAlpha" type="matrix" values="0 0 0 0 0 0 0 0 0 0 0 0 0 0 0 0 0 0 127 0" result="hardAlpha"/>
<feOffset dx="-6" dy="8"/>
<feGaussianBlur stdDeviation="7"/>
<feComposite in2="hardAlpha" operator="arithmetic" k2="-1" k3="1"/>
<feColorMatrix type="matrix" values="0 0 0 0 1 0 0 0 0 1 0 0 0 0 1 0 0 0 0.5 0"/>
<feBlend mode="normal" in2="effect1_innerShadow_352_3032" result="effect2_innerShadow_352_3032"/>
</filter>
</defs>
</svg>
