<svg width="1744" height="1105" viewBox="0 0 1744 1105" fill="none" xmlns="http://www.w3.org/2000/svg">
<g opacity="0.9">
<g filter="url(#filter0_ii_835_8076)">
<path d="M1656.3 0C1704.3 5.17899e-05 1743.52 34.1265 1743.52 75.8799V331.778C1743.52 420.37 1660.46 492.925 1558.51 492.925C1456.56 492.925 1373.27 420.37 1373.27 331.778V160.364C1373.27 148.63 1351.35 148.63 1351.35 160.364V246.902C1351.47 247.587 1351.47 248.272 1351.47 248.956V504.854C1351.47 593.446 1268.18 666.001 1166.23 666.001C1064.28 666.001 980.99 593.446 980.99 504.854V333.44C980.99 321.706 959.071 321.706 959.071 333.44V590.121C959.071 592.044 958.988 593.951 958.824 595.839C958.789 652.943 958.787 710.01 958.787 770.091C958.787 858.682 875.385 931.237 773.549 931.237C671.713 931.237 588.311 858.682 588.311 770.091V598.872C588.31 587.139 566.618 587.139 566.617 598.872V685.117C566.73 685.899 566.729 686.584 566.729 687.366C566.617 772.633 566.617 854.673 566.617 943.265C566.617 1031.86 483.215 1104.41 381.379 1104.41C279.543 1104.41 196.141 1031.86 196.141 943.265V772.046C196.14 760.313 174.448 760.313 174.447 772.046V1028.63C174.447 1070.38 135.219 1104.51 87.2236 1104.51C39.2281 1104.51 0 1070.38 0 1028.63V772.73C0.000215015 684.139 83.0654 611.584 185.014 611.584C286.962 611.584 370.251 684.139 370.251 772.73V944.145C370.251 955.879 392.17 955.879 392.17 944.145V857.606C392.058 856.922 392.058 856.237 392.058 855.553V599.654C392.058 511.063 475.347 438.508 577.295 438.508C679.243 438.508 762.533 511.063 762.533 599.654V771.068C762.533 782.802 784.452 782.802 784.452 771.068V514.388C784.452 512.464 784.535 510.557 784.698 508.669C784.733 451.565 784.736 394.498 784.736 334.418C784.736 245.827 868.139 173.272 969.975 173.271C1071.81 173.271 1155.21 245.827 1155.21 334.418V505.637C1155.21 517.37 1176.91 517.37 1176.91 505.637V419.392C1176.79 418.609 1176.79 417.925 1176.79 417.143C1176.91 331.876 1176.91 249.836 1176.91 161.244C1176.91 72.6526 1260.31 0.0976562 1362.14 0.0976562C1463.98 0.0977469 1547.38 72.6527 1547.38 161.244V332.463C1547.38 344.196 1569.08 344.196 1569.08 332.463V75.8799C1569.08 34.1265 1608.3 0 1656.3 0Z" fill="white"/>
</g>
</g>
<defs>
<filter id="filter0_ii_835_8076" x="-6" y="-14" width="1763.52" height="1126.51" filterUnits="userSpaceOnUse" color-interpolation-filters="sRGB">
<feFlood flood-opacity="0" result="BackgroundImageFix"/>
<feBlend mode="normal" in="SourceGraphic" in2="BackgroundImageFix" result="shape"/>
<feColorMatrix in="SourceAlpha" type="matrix" values="0 0 0 0 0 0 0 0 0 0 0 0 0 0 0 0 0 0 127 0" result="hardAlpha"/>
<feOffset dx="16" dy="-16"/>
<feGaussianBlur stdDeviation="7"/>
<feComposite in2="hardAlpha" operator="arithmetic" k2="-1" k3="1"/>
<feColorMatrix type="matrix" values="0 0 0 0 0 0 0 0 0 0 0 0 0 0 0 0 0 0 0.25 0"/>
<feBlend mode="normal" in2="shape" result="effect1_innerShadow_835_8076"/>
<feColorMatrix in="SourceAlpha" type="matrix" values="0 0 0 0 0 0 0 0 0 0 0 0 0 0 0 0 0 0 127 0" result="hardAlpha"/>
<feOffset dx="-6" dy="8"/>
<feGaussianBlur stdDeviation="7"/>
<feComposite in2="hardAlpha" operator="arithmetic" k2="-1" k3="1"/>
<feColorMatrix type="matrix" values="0 0 0 0 1 0 0 0 0 1 0 0 0 0 1 0 0 0 0.5 0"/>
<feBlend mode="normal" in2="effect1_innerShadow_835_8076" result="effect2_innerShadow_835_8076"/>
</filter>
</defs>
</svg>
